<?xml version="1.0" encoding="UTF-8"?>
<svg width="178" height="120" version="1.1" viewBox="-1 -1 178 120" xmlns="http://www.w3.org/2000/svg">
 <path transform="matrix(1.1557 0 0 1.1557 -239.15 -115.8)" d="m327.75 130.75c7.319-1.602 16.253-5.312 22.25-1.25 6.1 4.139 5.905 13.712 7 21 0.966 6.412 4.165 15.329-1 19-7.043 5.027-17.437 1.927-26 0.75-6.265-1.078-12.598-3.578-17.593-7.379-3.878-2.947-7.657-7.543-7.657-12.371s3.906-9.275 7.657-12.371c4.459-3.68 9.912-6.055 15.343-7.379z" fill="#ff0" stroke="#000" stroke-linecap="round" stroke-width="2"/>
 <path transform="translate(-180 -122)" d="m244.5 124c8.304-0.208 17.102 1.233 25 4.5 12.667 4.655 30.339 6.433 36 19 8.478 18.826 13.068 45.778 0.5 62-12.986 17.081-40.488 16.315-61.5 17.5-12.992 0.728-27.306-2.919-37.5-11-12.175-10.027-21.854-24.633-25.5-40-2.053-8.7 4.277-17.344 9.5-24 7.297-9.465 16.801-17.761 27-23 7.989-4.099 17.524-4.77 26.5-5z" fill="#03c" stroke="#03c" stroke-linecap="round" stroke-width="2"/>
 <path transform="matrix(.92425 -.3818 .3818 .92425 -241.65 -6.25)" d="m264.5 187.5c3.457 0.442 7.149 2.29 8 5.5 2.321 5.559 2.073 12.089 0.5 18-1.848 6.979-6.399 12.538-9.5 19.5-1.16 2.982 0.359 7.072-2 9.5-1.084 1.137-3.452 0.154-4.5-1.5-2.597-3.826-3.124-8.575-4-13.5-2.088-11.764-8.301-24.485-4.699-35.574 1.684-5.162 10.813-2.626 16.199-1.926z" fill="#003FFF" stroke="#003FFF" stroke-linecap="round" stroke-width="2"/>
 <path transform="matrix(1.0137 0 0 1.0137 -183.9 -125.2)" d="m259.25 218.25c2.197 0.203 4.31 1.332 5.75 2.75 2.332 2.303 4.291 5.074 5.75 8 1.162 2.332 2.126 4.898 2.25 7.5 0.052 1.251-0.467 3.283-1.75 3.5-2.264 0.371-4.376-0.661-6-2-2.637-2.177-4.514-5.126-6.25-8-2.064-3.194-5.317-6.361-5.099-10.123 0.125-2.016 3.577-1.826 5.349-1.627z" fill="#ff0" stroke-linecap="round"/>
 <path transform="translate(-115.25 -167.5)" d="m128 202c2.557 6e-3 5.202 1.195 7.069 2.931 1.875 1.742 3.508 4.267 3.431 6.819 0.051 2.843-1.472 5.77-3.5 7.75-1.776 1.711-4.456 2.519-7 2.5-2.751-0.022-5.789-0.902-7.75-2.75-1.748-1.86-2.225-4.762-2.25-7.25-0.024-2.461 0.511-5.324 2.25-7 1.958-2.021 5.018-3.007 7.75-3z" fill="#fff" stroke-linecap="round"/>
 <path transform="matrix(.39583 0 0 .39583 -47.3 -35.05)" d="m139.38 199.25c3.276 0 6.245 1.345 8.395 3.517 2.149 2.172 3.48 5.172 3.48 8.483s-1.331 6.311-3.48 8.483c-2.15 2.172-5.119 3.517-8.395 3.517s-6.245-1.345-8.395-3.517c-2.149-2.172-3.48-5.172-3.48-8.483s1.331-6.311 3.48-8.483c2.15-2.172 5.119-3.517 8.395-3.517z" fill="#66004C"/>
 <path transform="translate(-78 -142.75)" d="m143.75 144c8.694 0.693 17.304 2.224 25.5 5 10.875 3.684 24.942 4.913 31.5 14.5 8.234 11.851 19.468 35.691 8 42.75-17.352 10.68-44.025-2.967-65.75-7.5-5.434-1.134-9.729-3.446-13.078-9.012-3.349-5.567-5.422-13.254-5.422-21.738s0.697-15.965 5.422-21.738c2.972-3.632 9.177-2.632 13.828-2.262z" stroke-linecap="round"/>
 <path transform="translate(-239 -170.25)" d="m323.75 195.5c6.955-0.096 13.543 4.267 19.444 7.601 2.337 1.319 5.056 3.825 5.056 6.274s-1.933 4.667-5.056 6.274c-3.122 1.607-7.435 2.601-12.194 2.601s-9.072-0.994-12.194-2.601c-3.123-1.607-4.572-3.654-5.056-6.274-0.385-2.135 1.141-4.162 2.25-5.875 2.278-2.986 4.176-7.948 7.75-8z" fill="#03c" stroke-linecap="round"/>
 <path transform="matrix(.82248 .5688 -.5688 .82248 99.5 -152)" d="m133.5 149.5c5.174-0.648 12.04-1.217 15 2.8 6.712 9.163 10.529 21.052 10.65 32.15 0.074 6.927-3.901 14.831-9.8 18.35-4.629 2.762-10.578-1.714-15.85-3.3-1.42-0.427-2.986-1.401-3.5-2.75-3.153-5.132-5.573-10.747-7.25-16.25-2.352-7.79-8.963-16.111-6.216-23.673 2.104-5.781 10.862-6.557 16.966-7.327z" stroke-linecap="round"/>
</svg>
